HIERARCHY
ROOT hips
{
  OFFSET 0 10.680822821525009 1.3929502295107734
  CHANNELS 6 Xposition Yposition Zposition Yrotation Xrotation Zrotation
  JOINT spine
  {
    OFFSET -7.042017322922631e-31 0.6058489940359625 0
    CHANNELS 3 Yrotation Xrotation Zrotation
    JOINT chest
    {
      OFFSET 0 1.2699794144455032 0
      CHANNELS 3 Yrotation Xrotation Zrotation
      JOINT upperChest
      {
        OFFSET 0 1.217799211677689 0
        CHANNELS 3 Yrotation Xrotation Zrotation
        JOINT neck
        {
          OFFSET 0 1.5248826104153006 0
          CHANNELS 3 Yrotation Xrotation Zrotation
          JOINT head
          {
            OFFSET 0 0.8197772727844447 0
            CHANNELS 3 Yrotation Xrotation Zrotation
            JOINT leftEye
            {
              OFFSET 0.2793952361220866 0.6769952096623495 0.1830357412467788
              CHANNELS 3 Yrotation Xrotation Zrotation
              End Site
              {
                OFFSET 0.2793952361220866 0.6769952096623495 0.1830357412467788
              }
            }
            JOINT rightEye
            {
              OFFSET -0.27939522230689573 0.676995205357064 0.18303631459760622
              CHANNELS 3 Yrotation Xrotation Zrotation
              End Site
              {
                OFFSET -0.27939522230689573 0.676995205357064 0.18303631459760622
              }
            }
          }
        }
        JOINT leftShoulder
        {
          OFFSET 0.41486978509200423 1.1670505408695453 0
          CHANNELS 3 Yrotation Xrotation Zrotation
          JOINT leftUpperArm
          {
            OFFSET 0.9737926108153417 0 0
            CHANNELS 3 Yrotation Xrotation Zrotation
            JOINT leftLowerArm
            {
              OFFSET 2.5269332222665284 0 0
              CHANNELS 3 Yrotation Xrotation Zrotation
              JOINT leftHand
              {
                OFFSET 2.4263782738425914 0 0
                CHANNELS 3 Yrotation Xrotation Zrotation
                JOINT leftIndexProximal
                {
                  OFFSET 0.724320348022514 0.08170607082582437 0.20360061616140124
                  CHANNELS 3 Yrotation Xrotation Zrotation
                  JOINT leftIndexIntermediate
                  {
                    OFFSET 0.36548960630744587 -0.010566596513783999 -0.01414783573280308
                    CHANNELS 3 Yrotation Xrotation Zrotation
                    JOINT leftIndexDistal
                    {
                      OFFSET 0.22502819650693362 -0.007863819831430696 -0.007567681939621526
                      CHANNELS 3 Yrotation Xrotation Zrotation
                      End Site
                      {
                        OFFSET 0.22502819650693362 -0.007863819831430696 -0.007567681939621526
                      }
                    }
                  }
                }
                JOINT leftLittleProximal
                {
                  OFFSET 0.6720322998298205 0.08170601055037707 -0.3230036039466837
                  CHANNELS 3 Yrotation Xrotation Zrotation
                  JOINT leftLittleIntermediate
                  {
                    OFFSET 0.34583592281688713 5.476543019078406e-8 1.3869203337180114e-7
                    CHANNELS 3 Yrotation Xrotation Zrotation
                    JOINT leftLittleDistal
                    {
                      OFFSET 0.19925728062053938 0.003098047439490381 0.0038303983709246925
                      CHANNELS 3 Yrotation Xrotation Zrotation
                      End Site
                      {
                        OFFSET 0.19925728062053938 0.003098047439490381 0.0038303983709246925
                      }
                    }
                  }
                }
                JOINT leftMiddleProximal
                {
                  OFFSET 0.7300436596551069 0.0817073395107144 0.022661722987926763
                  CHANNELS 3 Yrotation Xrotation Zrotation
                  JOINT leftMiddleIntermediate
                  {
                    OFFSET 0.40758254347686607 -0.0000012383587111308714 2.408460318820138e-7
                    CHANNELS 3 Yrotation Xrotation Zrotation
                    JOINT leftMiddleDistal
                    {
                      OFFSET 0.2514490105498507 0.0000013869132886590307 9.738618134136345e-8
                      CHANNELS 3 Yrotation Xrotation Zrotation
                      End Site
                      {
                        OFFSET 0.2514490105498507 0.0000013869132886590307 9.738618134136345e-8
                      }
                    }
                  }
                }
                JOINT leftRingProximal
                {
                  OFFSET 0.7217261161191838 0.08170601902187746 -0.15043395722184966
                  CHANNELS 3 Yrotation Xrotation Zrotation
                  JOINT leftRingIntermediate
                  {
                    OFFSET 0.37808807487521556 0.0000013754022405443322 2.2046919317952884e-7
                    CHANNELS 3 Yrotation Xrotation Zrotation
                    JOINT leftRingDistal
                    {
                      OFFSET 0.21812105442344254 -0.002713483731960231 -0.004991354517454624
                      CHANNELS 3 Yrotation Xrotation Zrotation
                      End Site
                      {
                        OFFSET 0.21812105442344254 -0.002713483731960231 -0.004991354517454624
                      }
                    }
                  }
                }
                JOINT leftThumbProximal
                {
                  OFFSET 0.10793587079521427 -0.1652791240518252 -0.07775251827190094
                  CHANNELS 3 Yrotation Xrotation Zrotation
                  JOINT leftThumbIntermediate
                  {
                    OFFSET 0.40355819082296684 -0.017484006740276614 0.3177776014416309
                    CHANNELS 3 Yrotation Xrotation Zrotation
                    JOINT leftThumbDistal
                    {
                      OFFSET 0.2318764658022603 -0.018510186824293617 0.21396001800186287
                      CHANNELS 3 Yrotation Xrotation Zrotation
                      End Site
                      {
                        OFFSET 0.2318764658022603 -0.018510186824293617 0.21396001800186287
                      }
                    }
                  }
                }
              }
            }
          }
        }
        JOINT rightShoulder
        {
          OFFSET -0.4148697850920044 1.1670505408695453 0
          CHANNELS 3 Yrotation Xrotation Zrotation
          JOINT rightUpperArm
          {
            OFFSET -0.9737926108153414 0 0
            CHANNELS 3 Yrotation Xrotation Zrotation
            JOINT rightLowerArm
            {
              OFFSET -2.5269332222665293 0 0
              CHANNELS 3 Yrotation Xrotation Zrotation
              JOINT rightHand
              {
                OFFSET -2.42637827384259 0 0
                CHANNELS 3 Yrotation Xrotation Zrotation
                JOINT rightIndexProximal
                {
                  OFFSET -0.724320348022514 0.08170607082582437 0.20360061616140124
                  CHANNELS 3 Yrotation Xrotation Zrotation
                  JOINT rightIndexIntermediate
                  {
                    OFFSET -0.36548960630744587 -0.010566596513783999 -0.01414783573280308
                    CHANNELS 3 Yrotation Xrotation Zrotation
                    JOINT rightIndexDistal
                    {
                      OFFSET -0.22502819650693362 -0.007863819831430696 -0.007567681939621526
                      CHANNELS 3 Yrotation Xrotation Zrotation
                      End Site
                      {
                        OFFSET -0.22502819650693362 -0.007863819831430696 -0.007567681939621526
                      }
                    }
                  }
                }
                JOINT rightLittleProximal
                {
                  OFFSET -0.6720322998298205 0.08170601055037707 -0.3230036039466837
                  CHANNELS 3 Yrotation Xrotation Zrotation
                  JOINT rightLittleIntermediate
                  {
                    OFFSET -0.34583592281688713 5.476543019078406e-8 1.3869203337180114e-7
                    CHANNELS 3 Yrotation Xrotation Zrotation
                    JOINT rightLittleDistal
                    {
                      OFFSET -0.19925728062053938 0.003098047439490381 0.0038303983709246925
                      CHANNELS 3 Yrotation Xrotation Zrotation
                      End Site
                      {
                        OFFSET -0.19925728062053938 0.003098047439490381 0.0038303983709246925
                      }
                    }
                  }
                }
                JOINT rightMiddleProximal
                {
                  OFFSET -0.7300436596551069 0.0817073395107144 0.022661722987926763
                  CHANNELS 3 Yrotation Xrotation Zrotation
                  JOINT rightMiddleIntermediate
                  {
                    OFFSET -0.40758254347686607 -0.0000012383587111308714 2.408460318820138e-7
                    CHANNELS 3 Yrotation Xrotation Zrotation
                    JOINT rightMiddleDistal
                    {
                      OFFSET -0.2514490105498507 0.0000013869132886590307 9.738618134136345e-8
                      CHANNELS 3 Yrotation Xrotation Zrotation
                      End Site
                      {
                        OFFSET -0.2514490105498507 0.0000013869132886590307 9.738618134136345e-8
                      }
                    }
                  }
                }
                JOINT rightRingProximal
                {
                  OFFSET -0.7217261161191838 0.08170601902187746 -0.15043395722184966
                  CHANNELS 3 Yrotation Xrotation Zrotation
                  JOINT rightRingIntermediate
                  {
                    OFFSET -0.37808807487521556 0.0000013754022405443322 2.2046919317952884e-7
                    CHANNELS 3 Yrotation Xrotation Zrotation
                    JOINT rightRingDistal
                    {
                      OFFSET -0.21812105442344254 -0.002713483731960231 -0.004991354517454624
                      CHANNELS 3 Yrotation Xrotation Zrotation
                      End Site
                      {
                        OFFSET -0.21812105442344254 -0.002713483731960231 -0.004991354517454624
                      }
                    }
                  }
                }
                JOINT rightThumbProximal
                {
                  OFFSET -0.10793587079521427 -0.1652791240518252 -0.07775251827190094
                  CHANNELS 3 Yrotation Xrotation Zrotation
                  JOINT rightThumbIntermediate
                  {
                    OFFSET -0.40355819082296684 -0.017484006740276614 0.3177776014416309
                    CHANNELS 3 Yrotation Xrotation Zrotation
                    JOINT rightThumbDistal
                    {
                      OFFSET -0.2318764658022603 -0.018510186824293617 0.21396001800186287
                      CHANNELS 3 Yrotation Xrotation Zrotation
                      End Site
                      {
                        OFFSET -0.2318764658022603 -0.018510186824293617 0.21396001800186287
                      }
                    }
                  }
                }
              }
            }
          }
        }
      }
    }
  }
  JOINT leftUpperLeg
  {
    OFFSET 0.8486251390888677 -0.4421577294694363 0
    CHANNELS 3 Yrotation Xrotation Zrotation
    JOINT leftLowerLeg
    {
      OFFSET 0 -4.10147812638609 0
      CHANNELS 3 Yrotation Xrotation Zrotation
      JOINT leftFoot
      {
        OFFSET -0.0002543926476658853 -4.77292286812444 0.007402811231737388
        CHANNELS 3 Yrotation Xrotation Zrotation
        JOINT leftToes
        {
          OFFSET 0 -0.7027875951174846 1.2062924140498823
          CHANNELS 3 Yrotation Xrotation Zrotation
          End Site
          {
            OFFSET 0 -0.7027875951174846 1.2062924140498823
          }
        }
      }
    }
  }
  JOINT rightUpperLeg
  {
    OFFSET -0.8486251390888677 -0.4421577294694363 0
    CHANNELS 3 Yrotation Xrotation Zrotation
    JOINT rightLowerLeg
    {
      OFFSET 0 -4.10147812638609 0
      CHANNELS 3 Yrotation Xrotation Zrotation
      JOINT rightFoot
      {
        OFFSET 0.0002543926476658853 -4.77292286812444 0.007402811231737388
        CHANNELS 3 Yrotation Xrotation Zrotation
        JOINT rightToes
        {
          OFFSET 0 -0.7027875951174846 1.2062924140498823
          CHANNELS 3 Yrotation Xrotation Zrotation
          End Site
          {
            OFFSET 0 -0.7027875951174846 1.2062924140498823
          }
        }
      }
    }
  }
}
MOTION
Frames: 4
Frame Time: 0.03333333333333333
0.049024589359760284 -0.2687811574014738 0.02482982724905014 1.5086562863168336 -0.8959913850795521 -5.402513064913906 -1.1587803826893543 1.296897180427999 3.0057194428757734 1.2666078441565978 1.3390462237532244 11.80853904100285 0 0 0 -0.3326680716910749 1.0447749254296885 -2.165939783362707 0.43950471058574936 1.5774485427240184 -8.13468443172564 0 0 0 0 0 0 -13.854272835080653 3.496972094961386 -5.725293449428237 2.783477964306326 3.370299300147099 -83.5190624703821 -14.505515298880319 0.02359598805486121 0.18538969318157916 4.035373363413391 -27.54280343669364 -11.331065855228339 4.570051925549386 0.3339056127473745 -7.876833760499364 2.5634729575593043 0.3401878146165692 -20.583583491163026 0.6861123599829058 0.0230379885673942 -10.179091078575599 15.65089250264777 5.249112894366809 -35.639658062433696 3.54909708009508 1.1547297592533876 -45.60847097385697 2.593812909842555 0.4398411818530844 -20.537773293607597 8.567726899879135 0.882556278870317 -15.807285455816356 3.5839005732551454 0.7964591112575987 -33.39142182914076 1.3315791088443878 0.1538223548124058 -12.278641774948834 11.34777547540192 2.4401849314562107 -26.5538751226569 3.4100477234905746 1.533954727426555 -40.16009499630904 1.5898838103072361 0.50313543612873 -19.351056415471653 -0.33861384250167736 18.477683942874872 10.813692667202748 32.72269095611299 1.1966745647510393 -2.795150475851481 9.312057859097838 2.0989720802277128 -0.13581876131733406 3.4051699870076226 4.498129351042671 5.69569625052042 1.3394074777976959 -1.674192733835777 67.30130147855674 17.735260691726825 0.035156323220473434 -0.22544219640453927 -9.163767507453178 -11.056247182828555 12.02733603088724 -4.570040010518214 0.3339096148793036 7.876854526108653 -2.563435275703864 0.3402133215538774 20.583612670254617 -0.03924427837283362 -0.2146294449340696 13.845678092774575 -15.65081852791968 5.249159192303028 35.639686775042414 -3.549014407719174 1.154742781946193 45.60848063462047 0.031170590387497237 -0.7822347995605861 22.123612389020543 -8.567702749353362 0.8825810946109288 15.807315250462835 -3.5838385762522194 0.7964834995237151 33.39142656048075 -1.4859740686500889 0.1883327203031334 15.912891597377966 -11.347723187096896 2.4402280861580974 26.553901109479224 -3.4099639686674696 1.5339813106579219 40.1600853679545 0.2617083890953397 -0.19344762656587752 17.812635297889912 0.3387014382845108 18.477597525568783 -10.813691683754536 -32.72269095611299 1.196657699043121 2.7951408802324753 -8.420507694095882 1.9948944665365094 0.9290333696029776 11.672257537907317 -19.198346417737646 11.913364534145368 10.265033012344938 21.737255975573884 6.052383895469326 3.2394169777157287 -1.5023280673558237 -8.908967917006915 -2.1536405070385713e-7 -0.43285097421447033 2.720567506108069e-9 -4.833244941805835 -1.6102636496024754 10.75214914183416 -5.161635637669852 12.400459928088775 2.2224247846482945 0.9235962212094484 -9.850321713664089 -7.926745794519114 0.0000012905873432372661 -0.5389639818385553 -8.704489378279213e-7
0.08462189137935638 -0.2688917836221769 0.05308254435658455 1.462599647575757 -1.0540096093906208 -5.3223492300305555 -1.14999249399427 1.3136696471372227 2.999900058826972 1.2680280786295974 1.3579403447261102 11.785697843471532 0 0 0 -0.33525034165328166 1.0441018265233062 -2.1632932632827298 0.4242586112998797 1.5672508591176588 -8.10111443592493 0 0 0 0 0 0 -13.866695084577485 3.485019709808259 -5.781779524694711 2.6382391690063853 3.3712623153443064 -83.42179450760136 -14.541092945706655 0.02372227652915384 0.18581266686270959 3.74614156306254 -27.17204603027576 -11.104681961269069 4.570051925549386 0.3339056127473745 -7.876833760499364 2.5634729575593043 0.3401878146165692 -20.583583491163026 0.6861123599829058 0.0230379885673942 -10.179091078575599 15.665095873451063 5.251092991579674 -35.58659617928676 3.551042403950716 1.1563580232904567 -45.63736758726365 2.5963874228848414 0.44102999005741944 -20.57001258080952 8.572168433632477 0.8834181056235422 -15.796713213816757 3.5811865487798897 0.7947581234422879 -33.35458498555371 1.3315622513076264 0.1538110022500437 -12.278543147427936 11.356081609918768 2.44019839059576 -26.50789751880335 3.4101627903045335 1.534069494391649 -40.16222570603754 1.5883964722599082 0.5024106611205914 -19.331724813795734 -0.3022108712784492 18.480951629224222 10.840643588470623 32.7416420233763 1.2027877502442867 -2.791018293459433 9.322155465688859 2.101339904370128 -0.13349434760063655 3.4377153191588885 4.493664035250566 5.8117456452764 1.4981698699032453 -1.6099020404166038 67.17387158206057 17.72874432902861 0.03515967494967666 -0.22538432699652677 -8.768576389692024 -10.897090482895946 11.773674747156887 -4.572093248768525 0.3333572139649783 7.864448352381618 -2.5594217090365876 0.33871377522730983 20.534936744342 -0.03389030177521292 -0.21465628563141728 13.787315665055603 -15.622505513614861 5.215955021810292 35.54567346345924 -3.5387297952690693 1.1461441883729115 45.455947128095524 0.03987709803070031 -0.7814431176018575 22.0374840307951 -8.554836843364827 0.8777704196230336 15.767884487432367 -3.577010163599608 0.7922077637173585 33.29894725248832 -1.481378244873086 0.1870176883898323 15.857847160985248 -11.331667457494373 2.42791922486469 26.4899853198422 -3.4017511739413386 1.525322027306469 40.023193357466944 0.2676960269191432 -0.19378213432232508 17.746012362056632 0.32471691517269813 18.389379136138533 -10.730288905817561 -32.64728280838087 1.2286672930937546 2.581242631817446 -8.35237582069826 1.9844093543457588 0.9662268066459798 11.741611209974685 -18.957528867042598 11.665679829412568 10.265187017423965 22.100083938613064 6.155430617712441 3.376347421138056 -1.9607720704505298 -8.875855021225194 -0.0000014992529894508087 -0.43263272210115333 -0.0000033961670482764623 -4.714235810071877 -1.500024756027718 10.438026392197735 -5.207516688843627 12.79520914235967 2.1460573724292007 0.9189194202827102 -10.203567325849008 -7.6359080996116475 -0.0000016914378007798619 -0.541643082578588 4.4873709101529526e-7
0.16169649362564087 -0.270091505912216 0.11365069448947906 1.3267799211612126 -1.4010734322981593 -5.139091331567987 -1.1161439277437089 1.383943168013892 2.9735360266051822 1.2699786837572653 1.4343161073079518 11.684674083251158 0 0 0 -0.3435698406025482 1.0429501083037755 -2.1497232818743988 0.3696644705992999 1.517396320749814 -7.9573011132454 0 0 0 0 0 0 -13.92850407306864 3.4346731189510735 -6.021985825249001 2.0176665975239447 3.370072016726055 -82.97691061563144 -14.744693733786216 0.024380277601759492 0.18835282588043054 2.6921297443524703 -25.77109487795507 -10.274255420091686 4.570051925549386 0.3339056127473745 -7.876833760499364 2.5634729575593043 0.3401878146165692 -20.583583491163026 0.6861123599829058 0.0230379885673942 -10.179091078575599 15.722814628794772 5.258911843496353 -35.371225635608646 3.5589249297532497 1.1629928833452525 -45.75462292088212 2.6068272230924783 0.4458545959873378 -20.700925807580205 8.590231660739562 0.8869459458122756 -15.753886024418064 3.5701429904216835 0.787841790588793 -33.20504145360968 1.3315323771912804 0.1538108688474308 -12.27812466013153 11.389823345124949 2.4401144312036336 -26.321314329474504 3.4106940141222024 1.5346437563494735 -40.170983462329716 1.5822539292444058 0.4994524891820306 -19.253145337441545 -0.1563014611224376 18.49384834606823 10.948669742622524 32.81760788339758 1.2273290157066894 -2.774465446323987 9.362988849738839 2.110887915100356 -0.12397009860734078 3.5641583038153746 4.474505194534218 6.278057752797942 2.125049389248017 -1.3380315570605281 66.65812753359629 17.711170622308842 0.03507351049628765 -0.22514839376214463 -7.157144509615226 -10.227778253610273 10.729805858875617 -4.580380787216384 0.3311342435001358 7.814449662861501 -2.543199121177249 0.3326624439254554 20.33829766441332 -0.012246979487159648 -0.2147494009734757 13.551456513662206 -15.507269227867384 5.082792790132562 35.16555595622829 -3.496938663792962 1.1116332947844267 44.83954234122377 0.07502727224761374 -0.7781146395932027 21.689506961826922 -8.502818767595425 0.8585124649323194 15.608663642229534 -3.5493525808692774 0.7750335677516491 32.92509545629417 -1.462741186533461 0.1817312146612068 15.635399792913244 -11.26655758833021 2.378563127512752 26.23168134301218 -3.3683373869380455 1.4904888059915324 39.470033244515704 0.2919009610777551 -0.1950991144357609 17.476813815863675 0.2674608663316357 18.033517018938152 -10.394011302299662 -32.34124467633748 1.357971516218739 1.717937333056044 -8.0767830227805 1.942617568214872 1.1161782142434318 11.830758923692894 -18.40018149144934 11.081942491142183 10.190901312969151 22.856852005383207 6.4253407696693845 3.8660661967396175 -2.9294679264352848 -8.857666082415255 0.0000016884310567277406 -0.4318236418277551 -0.0000017289222441862076 -4.359574535062166 -1.2764333629010314 9.800821715982195 -5.377488081118431 13.647521915885894 1.8834936743968125 0.8888332322964924 -10.964000559657205 -6.959182177898036 -0.0000025365781757483715 -0.5528963859542022 8.865426709068522e-7
0.24784383177757263 -0.2721256932291105 0.17950215935707092 1.0977681742412473 -1.7961966069016106 -4.914380783136379 -1.0681950308426287 1.4954407733519646 2.9350848496552637 1.2707270885551296 1.557654183634269 11.529232444984363 0 0 0 -0.35231548298931664 1.0378870361856858 -2.1280443250269525 0.31101875802563395 1.4403958214498753 -7.749126607073604 0 0 0 0 0 0 -14.031726550709879 3.3567318770593255 -6.387052475299586 1.0524981295472962 3.3209464689951265 -82.28755574005648 -15.056358316729312 0.025406685376688817 0.19225548942081155 1.1914411945326773 -23.60902587905568 -9.105604681623841 4.570051925549386 0.3339056127473745 -7.876833760499364 2.5634729575593043 0.3401878146165692 -20.583583491163026 0.6861123599829058 0.0230379885673942 -10.179091078575599 15.816470646064998 5.270574928909194 -35.022886273892766 3.571665744296399 1.1737789274057724 -45.94431640759509 2.6236657248045154 0.4537112098081736 -20.91260416880921 8.61945750489402 0.8925763014050871 -15.684629988396873 3.552241918247744 0.7767293710575309 -32.963229518338544 1.3314799114371207 0.153796701489944 -12.277498180556488 11.444468682737552 2.439420110731775 -26.019539891820955 3.4115548896504113 1.5355407540496802 -40.185139522268045 1.5723654767086626 0.4947198437490883 -19.126126587347937 0.07695993307663443 18.51377778082653 11.121839184845758 32.93905442826669 1.266538357985857 -2.7479984717289794 9.428797552299951 2.1262526827632793 -0.10864531827529368 3.7556662759834425 4.443006790541805 6.977953108491937 3.084778037232341 -0.8962345268625856 65.86983856801594 17.66890112549285 0.034903819617401674 -0.2246251811235546 -4.710361080240245 -9.079586714274479 9.054761779326476 -4.593266150246493 0.32766231559024694 7.736639756903657 -2.517914156566857 0.32336472322352977 20.032407166812668 0.021419705877064186 -0.21472456132200007 13.184571445680447 -15.32537988667938 4.878727080884503 34.57343474668843 -3.4311729917623675 1.0588123688799378 43.88040289157747 0.12963142230202745 -0.7725129980978199 21.148172969098734 -8.42171358219756 0.8290913825657029 15.360891775633165 -3.506110794671009 0.7486655857908655 32.34345368745617 -1.4336895182772202 0.17364141699037328 15.289320414189927 -11.164590922626964 2.3028417237406864 25.82968717938351 -3.3156806504833303 1.4369464490746064 38.609317900514355 0.3295776072660015 -0.19691901031324024 17.058032455649204 0.17210406618246638 17.48205145533003 -9.871380200670465 -31.87138682254691 1.5654178692517415 0.37497596765692015 -7.647821891544518 1.8771031357062131 1.3487650960844113 11.887941724204518 -17.714494498998604 10.371224378546266 10.049574970752282 23.622753322985215 6.759238445595492 4.617365772810393 -3.953091555117229 -8.88875476648629 5.331296955288983e-16 -0.43050137581500986 4.468448700045058e-15 -3.8788851169130467 -1.016252564562803 9.116514461838804 -5.62562472900339 14.54874978562007 1.497850746577207 0.8784202836893645 -11.771735249409303 -6.160444507333843 -0.000004231039463836354 -0.5737393955257092 4.815398633938797e-7
